<?xml version="1.0" encoding="utf-8"?>
<!-- Generator: Adobe Illustrator 25.0.1, SVG Export Plug-In . SVG Version: 6.00 Build 0)  -->
<svg version="1.1" id="Capa_1" xmlns="http://www.w3.org/2000/svg" xmlns:xlink="http://www.w3.org/1999/xlink" x="0px" y="0px"
	 viewBox="0 0 500 500" style="enable-background:new 0 0 500 500;" xml:space="preserve">
<style type="text/css">
	.st0{clip-path:url(#SVGID_2_);}
	.st1{fill:#3F66A0;}
	.st2{fill:#332C1C;}
	.st3{fill:url(#SVGID_3_);}
	.st4{fill:none;stroke:#332C1C;stroke-width:10;stroke-linecap:round;stroke-linejoin:round;stroke-miterlimit:10;}
</style>
<g>
	<g>
		<g>
			<defs>
				<path id="SVGID_1_" d="M69,0h362c38.1,0,69,30.9,69,69v362c0,38.1-30.9,69-69,69H69c-38.1,0-69-30.9-69-69V69
					C0,30.9,30.9,0,69,0z"/>
			</defs>
			<clipPath id="SVGID_2_">
				<use xlink:href="#SVGID_1_"  style="overflow:visible;"/>
			</clipPath>
			<g class="st0">
				<g>
					<rect class="st1" width="500" height="500"/>
				</g>
				<path class="st2" d="M350.6,121.6c0,0-43.1,92.3-124,92.3S120,167.8,76.8,167.8S-39,260,111.3,276.3s213.1-85.9,213.1-85.9
					L350.6,121.6z"/>
				<linearGradient id="SVGID_3_" gradientUnits="userSpaceOnUse" x1="276.2434" y1="210.9458" x2="588.0385" y2="451.1995">
					<stop  offset="0" style="stop-color:#FFB600"/>
					<stop  offset="4.375243e-02" style="stop-color:#FFB400"/>
					<stop  offset="0.6257" style="stop-color:#FF9E00"/>
					<stop  offset="1" style="stop-color:#FF9600"/>
				</linearGradient>
				<path class="st3" d="M608,378.4c0,3.3-82,130.1-82,130.1s-63.4,0-249.7-16.9c-34.3-3.1-59.8-8.6-78.3-15.5
					c15.6-11.1,29.6-26.1,28.6-43c-0.9-14.8-11.8-30.4-24.4-43.8c41.3-10.5,142.5-64.4,122.8-95.6c-22.4-35.5-24-149.2,52.5-204.4
					s144.8-14.2,144.8-14.2S608,375.2,608,378.4z"/>
				<path class="st4" d="M416.2,295.4c0,0,7.1-26.2,27.3-35c20.2-8.7,42.1,3.8,42.1,3.8"/>
				<path class="st2" d="M198,476.1c-82.2-30.4-28.7-87.8-9.1-85.1c2.9,0.4,7.5-0.2,13.3-1.7c12.7,13.3,23.5,29,24.4,43.8
					C227.6,450,213.6,465,198,476.1z"/>
				<path class="st2" d="M512.9,132c0,0,43.5,119.6-28,191.1S350,376.4,311.8,414.5S291,598.4,438.1,480s112.4-264.1,112.4-264.1
					L512.9,132z"/>
			</g>
		</g>
	</g>
</g>
</svg>
